<?xml version="1.0" standalone="no"?>
<!DOCTYPE svg PUBLIC "-//W3C//DTD SVG 20010904//EN"
 "http://www.w3.org/TR/2001/REC-SVG-20010904/DTD/svg10.dtd">
<svg version="1.0" xmlns="http://www.w3.org/2000/svg"
 width="1122.000000pt" height="1122.000000pt" viewBox="0 0 1122.000000 1122.000000"
 preserveAspectRatio="xMidYMid meet">
<metadata>
Created by potrace 1.14, written by Peter Selinger 2001-2017
</metadata>
<g transform="translate(0.000000,1122.000000) scale(0.100000,-0.100000)"
fill="#000000" stroke="none">
<path d="M770 10473 c-20 -10 -43 -33 -52 -53 -17 -33 -18 -293 -18 -4815 0
-4718 0 -4780 20 -4812 10 -18 33 -39 49 -47 27 -14 517 -16 4818 -13 3992 2
4791 4 4808 15 86 58 78 177 -15 224 -32 17 -299 18 -4724 18 -2579 0 -4691 2
-4693 3 -1 2 -3 2111 -4 4688 -1 2618 -5 4697 -10 4714 -21 75 -110 114 -179
78z"/>
<path d="M7820 9647 c-13 -7 -32 -24 -44 -40 -25 -33 -24 -12 -25 -655 l-1
-492 -87 72 c-190 155 -432 296 -658 381 -307 116 -545 157 -890 152 -287 -4
-462 -34 -712 -119 -435 -150 -777 -383 -1068 -731 l-87 -104 -277 1 c-232 1
-281 -2 -307 -15 -64 -33 -59 242 -59 -3268 l0 -3199 33 -32 32 -33 867 -2
866 -2 38 38 38 37 1 1389 c0 764 2 1390 3 1391 7 7 180 -44 187 -56 5 -7 9
-579 10 -1269 1 -691 2 -1301 3 -1357 2 -113 15 -144 66 -162 21 -8 303 -11
873 -11 914 0 877 -2 915 55 22 35 23 60 23 1679 l0 1360 94 -94 95 -95 1
-1350 c1 -743 3 -1382 4 -1419 3 -62 6 -72 35 -100 l31 -32 865 -2 c854 -2
864 -2 889 18 58 45 54 1 55 705 l1 521 55 11 c132 27 254 121 313 242 67 138
58 310 -23 434 -18 28 -103 121 -189 207 l-156 157 -1 2803 c0 1542 -2 2829
-3 2861 -3 66 -24 104 -69 123 -44 19 -1701 20 -1737 2z"/>
<path d="M1583 5789 c-17 -11 -36 -34 -42 -51 -8 -21 -11 -641 -11 -2055 0
-1711 3 -2030 14 -2058 28 -67 -17 -64 922 -64 829 0 851 0 883 20 64 39 60
-112 60 2104 1 1899 0 2022 -17 2055 -36 74 13 70 -932 69 -826 0 -846 -1
-877 -20z"/>
</g>
</svg>
